<svg width="252" height="190" viewBox="0 0 252 190" fill="none" xmlns="http://www.w3.org/2000/svg">
<g clip-path="url(#clip0_2_801)">
<path fill-rule="evenodd" clip-rule="evenodd" d="M134.314 7.42157C122.017 7.42157 112.049 17.3898 112.049 29.6863C112.049 41.9828 122.017 51.951 134.314 51.951C134.856 51.951 135.394 51.9314 135.926 51.8934C135.884 51.6764 135.862 51.453 135.862 51.2253C135.862 49.2717 137.46 47.6733 139.414 47.6733H140.18C140.18 43.75 143.361 40.5694 147.284 40.5694C149.278 40.5694 151.08 41.3911 152.37 42.7146C155.018 39.0516 156.578 34.5513 156.578 29.6864C156.578 17.3899 146.61 7.42157 134.314 7.42157Z" fill="white"/>
<path fill-rule="evenodd" clip-rule="evenodd" d="M112.049 29.6863C112.049 17.3898 122.017 7.42157 134.314 7.42157C146.61 7.42157 156.579 17.3898 156.579 29.6863C156.579 34.5511 155.018 39.0516 152.371 42.7143C152.755 43.1082 153.094 43.5465 153.379 44.0209C153.768 43.9136 154.178 43.856 154.601 43.856C155.875 43.856 157.028 44.3754 157.859 45.2141C160.802 40.7608 162.516 35.4239 162.516 29.6864C162.516 14.1109 149.889 1.48446 134.314 1.48446C126.303 1.48446 119.072 4.82461 113.938 10.1882C111.592 12.6392 109.683 15.5129 108.339 18.6835C106.905 22.0643 106.112 25.7827 106.112 29.6864C106.112 35.8974 108.12 41.6395 111.522 46.2989C113.249 48.6644 115.335 50.7509 117.701 52.4782C122.36 55.8803 128.102 57.8883 134.314 57.8883C138.957 57.8883 143.339 56.7655 147.202 54.7773C144.598 54.7773 141.995 54.7773 139.391 54.7773C137.682 54.7773 136.242 53.5159 135.926 51.8934C135.394 51.9316 134.856 51.951 134.314 51.951C122.017 51.951 112.049 41.9828 112.049 29.6863Z" fill="#FF8700"/>
<path fill-rule="evenodd" clip-rule="evenodd" d="M108.339 18.6833C109.684 15.5127 111.592 12.6391 113.938 10.188C113.165 8.74438 111.643 7.76207 109.891 7.76207C109.467 7.76207 109.057 7.81966 108.668 7.92697C107.426 5.85903 105.162 4.47535 102.574 4.47535C98.6504 4.47535 95.47 7.65594 95.47 11.5793H94.7039C92.7503 11.5793 91.152 13.1776 91.152 15.1312C91.152 17.0619 92.743 18.6832 94.6806 18.6832H108.339V18.6833Z" fill="#0296E5"/>
<path fill-rule="evenodd" clip-rule="evenodd" d="M147.284 40.5693C143.361 40.5693 140.18 43.7499 140.18 47.6732H139.414C137.46 47.6732 135.862 49.2715 135.862 51.2252C135.862 51.4528 135.884 51.6764 135.927 51.8932C136.242 53.5156 137.682 54.7771 139.391 54.7771H147.202H159.176C161.013 54.7771 162.516 53.2743 162.516 51.4374C162.516 49.6004 161.013 48.0977 159.176 48.0977C159.093 46.9759 158.605 45.9664 157.86 45.2138C157.028 44.3752 155.875 43.8558 154.601 43.8558C154.178 43.8558 153.768 43.9134 153.379 44.0208C153.094 43.5464 152.755 43.108 152.371 42.7141C151.081 41.391 149.278 40.5693 147.284 40.5693Z" fill="#0296E5"/>
<path fill-rule="evenodd" clip-rule="evenodd" d="M111.881 58.5507L105.449 52.1183L90.9388 66.0238C89.0034 67.9592 89.0034 71.126 90.9388 73.0614C92.8742 74.9968 96.041 74.9968 97.9764 73.0614L111.881 58.5507Z" fill="#FF8700"/>
<path fill-rule="evenodd" clip-rule="evenodd" d="M105.449 52.1183L111.881 58.5507L117.701 52.4781C115.335 50.7508 113.249 48.6643 111.522 46.2987L105.449 52.1183Z" fill="#FFC144"/>
<path d="M126.893 31.1707C127.713 31.1707 128.377 30.5061 128.377 29.6863C128.377 28.8665 127.713 28.202 126.893 28.202H126.892C126.072 28.202 125.408 28.8665 125.408 29.6863C125.408 30.5061 126.073 31.1707 126.893 31.1707Z" fill="black"/>
<path d="M134.314 31.1707C135.134 31.1707 135.799 30.5061 135.799 29.6863C135.799 28.8665 135.134 28.202 134.314 28.202H134.313C133.494 28.202 132.829 28.8665 132.829 29.6863C132.829 30.5061 133.495 31.1707 134.314 31.1707Z" fill="black"/>
<path d="M141.736 31.1707C142.556 31.1707 143.22 30.5061 143.22 29.6863C143.22 28.8665 142.556 28.202 141.736 28.202H141.735C140.915 28.202 140.251 28.8665 140.251 29.6863C140.251 30.5061 140.916 31.1707 141.736 31.1707Z" fill="black"/>
<path d="M160.441 46.7818C160.271 46.1851 160.01 45.6263 159.676 45.1203C162.508 40.4772 164 35.1628 164 29.6864C164 13.3174 150.683 9.15527e-05 134.314 9.15527e-05C126.509 9.15527e-05 119.398 3.02765 114.093 7.97012C112.976 6.90171 111.471 6.278 109.891 6.278C109.709 6.278 109.528 6.28602 109.348 6.30205C107.733 4.23811 105.222 2.99128 102.574 2.99128C98.332 2.99128 94.7986 6.08207 94.1079 10.1302C91.6106 10.4259 89.6675 12.5561 89.6675 15.1315C89.6675 17.9085 91.9162 20.1678 94.6804 20.1678H106.192C105.178 23.157 104.627 26.3586 104.627 29.6864C104.627 35.7492 106.454 41.3933 109.587 46.0973L89.9118 64.9521C89.9042 64.9593 89.8966 64.9668 89.8892 64.9742C87.3703 67.4932 87.3703 71.5919 89.8892 74.1109C91.1487 75.3703 92.8031 76.0001 94.4575 76.0001C96.1119 76.0001 97.7663 75.3703 99.0258 74.1109C99.0332 74.1035 99.0406 74.0959 99.0479 74.0883L117.902 54.413C122.606 57.5453 128.251 59.3725 134.314 59.3725C138.971 59.3725 143.424 58.3261 147.556 56.2616H159.176C161.836 56.2616 164 54.0974 164 51.4375C164 49.2152 162.49 47.339 160.441 46.7818ZM94.6806 17.199C93.5724 17.199 92.6362 16.2522 92.6362 15.1313C92.6362 13.9912 93.5638 13.0637 94.7039 13.0637H95.4699C96.2897 13.0637 96.9543 12.3992 96.9543 11.5794C96.9543 8.48072 99.4752 5.95976 102.574 5.95976C104.566 5.95976 106.368 6.98082 107.396 8.69135C107.739 9.26266 108.421 9.53533 109.063 9.35795C109.331 9.28404 109.61 9.24648 109.891 9.24648C110.692 9.24648 111.455 9.56027 112.025 10.0985C110.158 12.2197 108.589 14.6084 107.383 17.1991H94.6806V17.199ZM96.9166 72.022C95.5543 73.3733 93.3465 73.3699 91.9885 72.0118C90.6303 70.6538 90.6269 68.446 91.9782 67.0835L105.427 54.1952L109.805 58.5728L96.9166 72.022ZM111.859 56.4288L107.571 52.1407L111.368 48.5014C112.607 50.009 113.99 51.3927 115.498 52.6312L111.859 56.4288ZM107.596 29.6862C107.596 14.9541 119.582 2.96857 134.314 2.96857C149.046 2.96857 161.032 14.9541 161.032 29.6862C161.032 34.4219 159.793 39.0221 157.436 43.0805C156.586 42.6278 155.62 42.3716 154.601 42.3716C154.531 42.3716 154.462 42.3728 154.393 42.3752C156.798 38.581 158.063 34.2205 158.063 29.6864C158.063 16.5912 147.409 5.93735 134.314 5.93735C130.465 5.93735 126.641 6.88108 123.254 8.66656C122.529 9.04892 122.251 9.94663 122.633 10.6719C123.016 11.397 123.913 11.6748 124.639 11.2928C127.6 9.73111 130.946 8.90583 134.314 8.90583C145.772 8.90583 155.094 18.2279 155.094 29.6862C155.094 33.5524 154.043 37.2738 152.043 40.5321C150.651 39.6061 148.996 39.0851 147.284 39.0851C143.042 39.0851 139.509 42.176 138.818 46.224C136.571 46.49 134.773 48.2417 134.435 50.4666C134.396 50.4666 134.356 50.4666 134.314 50.4666C122.856 50.4666 113.533 41.1446 113.533 29.6862C113.533 26.3179 114.359 22.9725 115.92 20.0118C116.302 19.2865 116.024 18.3888 115.299 18.0065C114.574 17.6241 113.676 17.9021 113.294 18.6272C111.508 22.0132 110.565 25.8374 110.565 29.6862C110.565 42.7815 121.218 53.4353 134.314 53.4353C134.533 53.4353 134.714 53.4347 134.885 53.4317C135.535 54.7655 136.755 55.7701 138.224 56.1235C136.941 56.3101 135.637 56.4039 134.314 56.4039C119.582 56.4039 107.596 44.4184 107.596 29.6862ZM159.176 53.2929H139.391C138.283 53.2929 137.346 52.3461 137.346 51.2253C137.346 50.0852 138.274 49.1576 139.414 49.1576H140.18C141 49.1576 141.664 48.4931 141.664 47.6733C141.664 44.5747 144.185 42.0537 147.284 42.0537C149.276 42.0537 151.079 43.0748 152.106 44.7851C152.449 45.3566 153.131 45.6293 153.773 45.4517C154.041 45.3777 154.32 45.3403 154.601 45.3403C156.216 45.3403 157.576 46.6 157.696 48.2083C157.754 48.9831 158.399 49.5821 159.176 49.5821C160.199 49.5821 161.031 50.4144 161.031 51.4375C161.031 52.4607 160.199 53.2929 159.176 53.2929Z" fill="black"/>
<path d="M118.57 15.4272C119.39 15.4272 120.055 14.7626 120.055 13.9428C120.055 13.123 119.39 12.4584 118.57 12.4584H118.569C117.749 12.4584 117.085 13.123 117.085 13.9428C117.085 14.7626 117.75 15.4272 118.57 15.4272Z" fill="black"/>
</g>
<path d="M39.069 111L35.357 99.8H37.517L40.829 109.928H39.757L43.197 99.8H45.117L48.461 109.928H47.421L50.813 99.8H52.797L49.085 111H46.877L43.821 101.864H44.397L41.293 111H39.069ZM57.7949 111.112C56.8455 111.112 56.0135 110.925 55.2989 110.552C54.5949 110.168 54.0455 109.645 53.6509 108.984C53.2669 108.323 53.0749 107.571 53.0749 106.728C53.0749 105.875 53.2615 105.123 53.6349 104.472C54.0189 103.811 54.5415 103.293 55.2029 102.92C55.8749 102.547 56.6375 102.36 57.4909 102.36C58.3229 102.36 59.0642 102.541 59.7149 102.904C60.3655 103.267 60.8775 103.779 61.2509 104.44C61.6242 105.101 61.8109 105.88 61.8109 106.776C61.8109 106.861 61.8055 106.957 61.7949 107.064C61.7949 107.171 61.7895 107.272 61.7789 107.368H54.6589V106.04H60.7229L59.9389 106.456C59.9495 105.965 59.8482 105.533 59.6349 105.16C59.4215 104.787 59.1282 104.493 58.7549 104.28C58.3922 104.067 57.9709 103.96 57.4909 103.96C57.0002 103.96 56.5682 104.067 56.1949 104.28C55.8322 104.493 55.5442 104.792 55.3309 105.176C55.1282 105.549 55.0269 105.992 55.0269 106.504V106.824C55.0269 107.336 55.1442 107.789 55.3789 108.184C55.6135 108.579 55.9442 108.883 56.3709 109.096C56.7975 109.309 57.2882 109.416 57.8429 109.416C58.3229 109.416 58.7549 109.341 59.1389 109.192C59.5229 109.043 59.8642 108.808 60.1629 108.488L61.2349 109.72C60.8509 110.168 60.3655 110.515 59.7789 110.76C59.2029 110.995 58.5415 111.112 57.7949 111.112ZM67.0019 111L72.0419 99.8H74.0899L79.1459 111H76.9699L72.6339 100.904H73.4659L69.1459 111H67.0019ZM69.3219 108.408L69.8819 106.776H75.9299L76.4899 108.408H69.3219ZM80.4983 111V102.456H82.4023V104.808L82.1783 104.12C82.4343 103.544 82.8343 103.107 83.3783 102.808C83.9329 102.509 84.6209 102.36 85.4423 102.36V104.264C85.3569 104.243 85.2769 104.232 85.2023 104.232C85.1276 104.221 85.0529 104.216 84.9783 104.216C84.2209 104.216 83.6183 104.44 83.1703 104.888C82.7223 105.325 82.4983 105.981 82.4983 106.856V111H80.4983ZM91.1968 111.112C90.2474 111.112 89.4154 110.925 88.7008 110.552C87.9968 110.168 87.4474 109.645 87.0528 108.984C86.6688 108.323 86.4768 107.571 86.4768 106.728C86.4768 105.875 86.6634 105.123 87.0368 104.472C87.4208 103.811 87.9434 103.293 88.6048 102.92C89.2768 102.547 90.0394 102.36 90.8928 102.36C91.7248 102.36 92.4661 102.541 93.1168 102.904C93.7674 103.267 94.2794 103.779 94.6528 104.44C95.0261 105.101 95.2128 105.88 95.2128 106.776C95.2128 106.861 95.2074 106.957 95.1968 107.064C95.1968 107.171 95.1914 107.272 95.1808 107.368H88.0608V106.04H94.1248L93.3408 106.456C93.3514 105.965 93.2501 105.533 93.0368 105.16C92.8234 104.787 92.5301 104.493 92.1568 104.28C91.7941 104.067 91.3728 103.96 90.8928 103.96C90.4021 103.96 89.9701 104.067 89.5968 104.28C89.2341 104.493 88.9461 104.792 88.7328 105.176C88.5301 105.549 88.4288 105.992 88.4288 106.504V106.824C88.4288 107.336 88.5461 107.789 88.7808 108.184C89.0154 108.579 89.3461 108.883 89.7728 109.096C90.1994 109.309 90.6901 109.416 91.2448 109.416C91.7248 109.416 92.1568 109.341 92.5408 109.192C92.9248 109.043 93.2661 108.808 93.5648 108.488L94.6368 109.72C94.2528 110.168 93.7674 110.515 93.1808 110.76C92.6048 110.995 91.9434 111.112 91.1968 111.112ZM105.46 111.16C104.585 111.16 103.748 111.037 102.948 110.792C102.148 110.536 101.513 110.211 101.044 109.816L101.764 108.2C102.212 108.552 102.766 108.845 103.428 109.08C104.089 109.315 104.766 109.432 105.46 109.432C106.046 109.432 106.521 109.368 106.884 109.24C107.246 109.112 107.513 108.941 107.684 108.728C107.854 108.504 107.94 108.253 107.94 107.976C107.94 107.635 107.817 107.363 107.572 107.16C107.326 106.947 107.006 106.781 106.612 106.664C106.228 106.536 105.796 106.419 105.316 106.312C104.846 106.205 104.372 106.083 103.892 105.944C103.422 105.795 102.99 105.608 102.596 105.384C102.212 105.149 101.897 104.84 101.652 104.456C101.406 104.072 101.284 103.581 101.284 102.984C101.284 102.376 101.444 101.821 101.764 101.32C102.094 100.808 102.59 100.403 103.252 100.104C103.924 99.7947 104.772 99.64 105.796 99.64C106.468 99.64 107.134 99.7253 107.796 99.896C108.457 100.067 109.033 100.312 109.524 100.632L108.868 102.248C108.366 101.949 107.849 101.731 107.316 101.592C106.782 101.443 106.27 101.368 105.78 101.368C105.204 101.368 104.734 101.437 104.372 101.576C104.02 101.715 103.758 101.896 103.588 102.12C103.428 102.344 103.348 102.6 103.348 102.888C103.348 103.229 103.465 103.507 103.7 103.72C103.945 103.923 104.26 104.083 104.644 104.2C105.038 104.317 105.476 104.435 105.956 104.552C106.436 104.659 106.91 104.781 107.38 104.92C107.86 105.059 108.292 105.24 108.676 105.464C109.07 105.688 109.385 105.992 109.62 106.376C109.865 106.76 109.988 107.245 109.988 107.832C109.988 108.429 109.822 108.984 109.492 109.496C109.172 109.997 108.676 110.403 108.004 110.712C107.332 111.011 106.484 111.16 105.46 111.16ZM115.818 111.112C114.944 111.112 114.165 110.925 113.482 110.552C112.8 110.168 112.261 109.645 111.866 108.984C111.472 108.323 111.274 107.571 111.274 106.728C111.274 105.875 111.472 105.123 111.866 104.472C112.261 103.811 112.8 103.293 113.482 102.92C114.165 102.547 114.944 102.36 115.818 102.36C116.704 102.36 117.488 102.547 118.17 102.92C118.864 103.293 119.402 103.805 119.786 104.456C120.181 105.107 120.378 105.864 120.378 106.728C120.378 107.571 120.181 108.323 119.786 108.984C119.402 109.645 118.864 110.168 118.17 110.552C117.488 110.925 116.704 111.112 115.818 111.112ZM115.818 109.4C116.309 109.4 116.746 109.293 117.13 109.08C117.514 108.867 117.813 108.557 118.026 108.152C118.25 107.747 118.362 107.272 118.362 106.728C118.362 106.173 118.25 105.699 118.026 105.304C117.813 104.899 117.514 104.589 117.13 104.376C116.746 104.163 116.314 104.056 115.834 104.056C115.344 104.056 114.906 104.163 114.522 104.376C114.149 104.589 113.85 104.899 113.626 105.304C113.402 105.699 113.29 106.173 113.29 106.728C113.29 107.272 113.402 107.747 113.626 108.152C113.85 108.557 114.149 108.867 114.522 109.08C114.906 109.293 115.338 109.4 115.818 109.4ZM122.411 111V102.456H124.315V104.808L124.091 104.12C124.347 103.544 124.747 103.107 125.291 102.808C125.845 102.509 126.533 102.36 127.355 102.36V104.264C127.269 104.243 127.189 104.232 127.115 104.232C127.04 104.221 126.965 104.216 126.891 104.216C126.133 104.216 125.531 104.44 125.083 104.888C124.635 105.325 124.411 105.981 124.411 106.856V111H122.411ZM129.171 111V102.456H131.075V104.808L130.851 104.12C131.107 103.544 131.507 103.107 132.051 102.808C132.606 102.509 133.294 102.36 134.115 102.36V104.264C134.03 104.243 133.95 104.232 133.875 104.232C133.801 104.221 133.726 104.216 133.651 104.216C132.894 104.216 132.291 104.44 131.843 104.888C131.395 105.325 131.171 105.981 131.171 106.856V111H129.171ZM136.949 114.216C136.533 114.216 136.117 114.147 135.701 114.008C135.285 113.869 134.938 113.677 134.661 113.432L135.461 111.96C135.663 112.141 135.893 112.285 136.149 112.392C136.405 112.499 136.666 112.552 136.933 112.552C137.295 112.552 137.589 112.461 137.813 112.28C138.037 112.099 138.245 111.795 138.437 111.368L138.933 110.248L139.093 110.008L142.325 102.456H144.245L140.245 111.688C139.978 112.328 139.679 112.835 139.349 113.208C139.029 113.581 138.666 113.843 138.261 113.992C137.866 114.141 137.429 114.216 136.949 114.216ZM138.709 111.304L134.853 102.456H136.933L140.069 109.832L138.709 111.304ZM144.555 113.416L145.483 109.88L145.755 111.064C145.382 111.064 145.067 110.952 144.811 110.728C144.566 110.493 144.443 110.179 144.443 109.784C144.443 109.379 144.566 109.059 144.811 108.824C145.067 108.579 145.377 108.456 145.739 108.456C146.113 108.456 146.422 108.579 146.667 108.824C146.913 109.069 147.035 109.389 147.035 109.784C147.035 109.891 147.025 110.008 147.003 110.136C146.982 110.253 146.945 110.392 146.891 110.552C146.849 110.712 146.774 110.915 146.667 111.16L145.851 113.416H144.555ZM156.483 111L152.771 99.8H154.931L158.243 109.928H157.171L160.611 99.8H162.531L165.875 109.928H164.835L168.227 99.8H170.211L166.499 111H164.291L161.235 101.864H161.811L158.707 111H156.483ZM175.209 111.112C174.26 111.112 173.428 110.925 172.713 110.552C172.009 110.168 171.46 109.645 171.065 108.984C170.681 108.323 170.489 107.571 170.489 106.728C170.489 105.875 170.676 105.123 171.049 104.472C171.433 103.811 171.956 103.293 172.617 102.92C173.289 102.547 174.052 102.36 174.905 102.36C175.737 102.36 176.479 102.541 177.129 102.904C177.78 103.267 178.292 103.779 178.665 104.44C179.039 105.101 179.225 105.88 179.225 106.776C179.225 106.861 179.22 106.957 179.209 107.064C179.209 107.171 179.204 107.272 179.193 107.368H172.073V106.04H178.137L177.353 106.456C177.364 105.965 177.263 105.533 177.049 105.16C176.836 104.787 176.543 104.493 176.169 104.28C175.807 104.067 175.385 103.96 174.905 103.96C174.415 103.96 173.983 104.067 173.609 104.28C173.247 104.493 172.959 104.792 172.745 105.176C172.543 105.549 172.441 105.992 172.441 106.504V106.824C172.441 107.336 172.559 107.789 172.793 108.184C173.028 108.579 173.359 108.883 173.785 109.096C174.212 109.309 174.703 109.416 175.257 109.416C175.737 109.416 176.169 109.341 176.553 109.192C176.937 109.043 177.279 108.808 177.577 108.488L178.649 109.72C178.265 110.168 177.78 110.515 177.193 110.76C176.617 110.995 175.956 111.112 175.209 111.112ZM191.184 111.16C190.331 111.16 189.536 111.021 188.8 110.744C188.075 110.456 187.44 110.056 186.896 109.544C186.363 109.021 185.947 108.408 185.648 107.704C185.35 107 185.2 106.232 185.2 105.4C185.2 104.568 185.35 103.8 185.648 103.096C185.947 102.392 186.368 101.784 186.912 101.272C187.456 100.749 188.091 100.349 188.816 100.072C189.542 99.784 190.336 99.64 191.2 99.64C192.118 99.64 192.955 99.8 193.712 100.12C194.47 100.429 195.11 100.893 195.632 101.512L194.288 102.776C193.883 102.339 193.43 102.013 192.928 101.8C192.427 101.576 191.883 101.464 191.296 101.464C190.71 101.464 190.171 101.56 189.68 101.752C189.2 101.944 188.779 102.216 188.416 102.568C188.064 102.92 187.787 103.336 187.584 103.816C187.392 104.296 187.296 104.824 187.296 105.4C187.296 105.976 187.392 106.504 187.584 106.984C187.787 107.464 188.064 107.88 188.416 108.232C188.779 108.584 189.2 108.856 189.68 109.048C190.171 109.24 190.71 109.336 191.296 109.336C191.883 109.336 192.427 109.229 192.928 109.016C193.43 108.792 193.883 108.456 194.288 108.008L195.632 109.288C195.11 109.896 194.47 110.36 193.712 110.68C192.955 111 192.112 111.16 191.184 111.16ZM202.739 111V109.272L202.627 108.904V105.88C202.627 105.293 202.451 104.84 202.099 104.52C201.747 104.189 201.214 104.024 200.499 104.024C200.019 104.024 199.544 104.099 199.075 104.248C198.616 104.397 198.227 104.605 197.907 104.872L197.123 103.416C197.582 103.064 198.126 102.803 198.755 102.632C199.395 102.451 200.056 102.36 200.739 102.36C201.976 102.36 202.931 102.659 203.603 103.256C204.286 103.843 204.627 104.755 204.627 105.992V111H202.739ZM200.051 111.112C199.411 111.112 198.851 111.005 198.371 110.792C197.891 110.568 197.518 110.264 197.251 109.88C196.995 109.485 196.867 109.043 196.867 108.552C196.867 108.072 196.979 107.64 197.203 107.256C197.438 106.872 197.816 106.568 198.339 106.344C198.862 106.12 199.555 106.008 200.419 106.008H202.899V107.336H200.563C199.88 107.336 199.422 107.448 199.187 107.672C198.952 107.885 198.835 108.152 198.835 108.472C198.835 108.835 198.979 109.123 199.267 109.336C199.555 109.549 199.955 109.656 200.467 109.656C200.958 109.656 201.395 109.544 201.779 109.32C202.174 109.096 202.456 108.765 202.627 108.328L202.963 109.528C202.771 110.029 202.424 110.419 201.923 110.696C201.432 110.973 200.808 111.112 200.051 111.112ZM212.162 102.36C212.845 102.36 213.453 102.493 213.986 102.76C214.53 103.027 214.957 103.437 215.266 103.992C215.575 104.536 215.73 105.24 215.73 106.104V111H213.73V106.36C213.73 105.603 213.549 105.037 213.186 104.664C212.834 104.291 212.338 104.104 211.698 104.104C211.229 104.104 210.813 104.2 210.45 104.392C210.087 104.584 209.805 104.872 209.602 105.256C209.41 105.629 209.314 106.104 209.314 106.68V111H207.314V102.456H209.218V104.76L208.882 104.056C209.181 103.512 209.613 103.096 210.178 102.808C210.754 102.509 211.415 102.36 212.162 102.36ZM39.4603 137V125.8H41.1723L48.1963 134.424H47.3483V125.8H49.4123V137H47.7003L40.6763 128.376H41.5243V137H39.4603ZM56.1814 137.112C55.3067 137.112 54.528 136.925 53.8454 136.552C53.1627 136.168 52.624 135.645 52.2294 134.984C51.8347 134.323 51.6374 133.571 51.6374 132.728C51.6374 131.875 51.8347 131.123 52.2294 130.472C52.624 129.811 53.1627 129.293 53.8454 128.92C54.528 128.547 55.3067 128.36 56.1814 128.36C57.0667 128.36 57.8507 128.547 58.5334 128.92C59.2267 129.293 59.7654 129.805 60.1494 130.456C60.544 131.107 60.7414 131.864 60.7414 132.728C60.7414 133.571 60.544 134.323 60.1494 134.984C59.7654 135.645 59.2267 136.168 58.5334 136.552C57.8507 136.925 57.0667 137.112 56.1814 137.112ZM56.1814 135.4C56.672 135.4 57.1094 135.293 57.4934 135.08C57.8774 134.867 58.176 134.557 58.3894 134.152C58.6134 133.747 58.7254 133.272 58.7254 132.728C58.7254 132.173 58.6134 131.699 58.3894 131.304C58.176 130.899 57.8774 130.589 57.4934 130.376C57.1094 130.163 56.6774 130.056 56.1974 130.056C55.7067 130.056 55.2694 130.163 54.8854 130.376C54.512 130.589 54.2134 130.899 53.9894 131.304C53.7654 131.699 53.6534 132.173 53.6534 132.728C53.6534 133.272 53.7654 133.747 53.9894 134.152C54.2134 134.557 54.512 134.867 54.8854 135.08C55.2694 135.293 55.7014 135.4 56.1814 135.4ZM65.9899 137.112C65.0512 137.112 64.3259 136.872 63.8139 136.392C63.3019 135.901 63.0459 135.181 63.0459 134.232V126.568H65.0459V134.184C65.0459 134.589 65.1472 134.904 65.3499 135.128C65.5632 135.352 65.8565 135.464 66.2299 135.464C66.6779 135.464 67.0512 135.347 67.3499 135.112L67.9099 136.536C67.6752 136.728 67.3872 136.872 67.0459 136.968C66.7045 137.064 66.3525 137.112 65.9899 137.112ZM61.6379 130.12V128.52H67.3339V130.12H61.6379ZM76.313 130.952H81.897V132.712H76.313V130.952ZM76.489 137H74.409V125.8H82.585V127.544H76.489V137ZM84.5245 137V128.456H86.5245V137H84.5245ZM85.5325 127.048C85.1592 127.048 84.8498 126.931 84.6045 126.696C84.3698 126.461 84.2525 126.179 84.2525 125.848C84.2525 125.507 84.3698 125.224 84.6045 125C84.8498 124.765 85.1592 124.648 85.5325 124.648C85.9058 124.648 86.2098 124.76 86.4445 124.984C86.6898 125.197 86.8125 125.469 86.8125 125.8C86.8125 126.152 86.6952 126.451 86.4605 126.696C86.2258 126.931 85.9165 127.048 85.5325 127.048ZM94.1175 128.36C94.8002 128.36 95.4082 128.493 95.9415 128.76C96.4855 129.027 96.9122 129.437 97.2215 129.992C97.5308 130.536 97.6855 131.24 97.6855 132.104V137H95.6855V132.36C95.6855 131.603 95.5042 131.037 95.1415 130.664C94.7895 130.291 94.2935 130.104 93.6535 130.104C93.1842 130.104 92.7682 130.2 92.4055 130.392C92.0428 130.584 91.7602 130.872 91.5575 131.256C91.3655 131.629 91.2695 132.104 91.2695 132.68V137H89.2695V128.456H91.1735V130.76L90.8375 130.056C91.1362 129.512 91.5682 129.096 92.1335 128.808C92.7095 128.509 93.3708 128.36 94.1175 128.36ZM103.974 137.112C103.153 137.112 102.412 136.931 101.75 136.568C101.1 136.195 100.588 135.683 100.214 135.032C99.8409 134.381 99.6542 133.613 99.6542 132.728C99.6542 131.843 99.8409 131.075 100.214 130.424C100.588 129.773 101.1 129.267 101.75 128.904C102.412 128.541 103.153 128.36 103.974 128.36C104.689 128.36 105.329 128.52 105.894 128.84C106.46 129.149 106.908 129.624 107.238 130.264C107.569 130.904 107.734 131.725 107.734 132.728C107.734 133.72 107.574 134.541 107.254 135.192C106.934 135.832 106.492 136.312 105.926 136.632C105.361 136.952 104.71 137.112 103.974 137.112ZM104.214 135.4C104.694 135.4 105.121 135.293 105.494 135.08C105.878 134.867 106.182 134.557 106.406 134.152C106.641 133.747 106.758 133.272 106.758 132.728C106.758 132.173 106.641 131.699 106.406 131.304C106.182 130.899 105.878 130.589 105.494 130.376C105.121 130.163 104.694 130.056 104.214 130.056C103.734 130.056 103.302 130.163 102.918 130.376C102.545 130.589 102.241 130.899 102.006 131.304C101.782 131.699 101.67 132.173 101.67 132.728C101.67 133.272 101.782 133.747 102.006 134.152C102.241 134.557 102.545 134.867 102.918 135.08C103.302 135.293 103.734 135.4 104.214 135.4ZM106.806 137V134.984L106.886 132.712L106.726 130.44V125.128H108.71V137H106.806ZM118.469 137V127.56H114.757V125.8H124.261V127.56H120.549V137H118.469ZM130.598 128.36C131.28 128.36 131.888 128.493 132.422 128.76C132.966 129.027 133.392 129.437 133.702 129.992C134.011 130.536 134.166 131.24 134.166 132.104V137H132.166V132.36C132.166 131.603 131.984 131.037 131.622 130.664C131.27 130.291 130.774 130.104 130.134 130.104C129.664 130.104 129.248 130.2 128.886 130.392C128.523 130.584 128.24 130.872 128.038 131.256C127.846 131.629 127.75 132.104 127.75 132.68V137H125.75V125.128H127.75V130.76L127.318 130.056C127.616 129.512 128.048 129.096 128.614 128.808C129.19 128.509 129.851 128.36 130.598 128.36ZM140.854 137.112C139.905 137.112 139.073 136.925 138.358 136.552C137.654 136.168 137.105 135.645 136.71 134.984C136.326 134.323 136.134 133.571 136.134 132.728C136.134 131.875 136.321 131.123 136.694 130.472C137.078 129.811 137.601 129.293 138.262 128.92C138.934 128.547 139.697 128.36 140.55 128.36C141.382 128.36 142.124 128.541 142.774 128.904C143.425 129.267 143.937 129.779 144.31 130.44C144.684 131.101 144.87 131.88 144.87 132.776C144.87 132.861 144.865 132.957 144.854 133.064C144.854 133.171 144.849 133.272 144.838 133.368H137.718V132.04H143.782L142.998 132.456C143.009 131.965 142.908 131.533 142.694 131.16C142.481 130.787 142.188 130.493 141.814 130.28C141.452 130.067 141.03 129.96 140.55 129.96C140.06 129.96 139.628 130.067 139.254 130.28C138.892 130.493 138.604 130.792 138.39 131.176C138.188 131.549 138.086 131.992 138.086 132.504V132.824C138.086 133.336 138.204 133.789 138.438 134.184C138.673 134.579 139.004 134.883 139.43 135.096C139.857 135.309 140.348 135.416 140.902 135.416C141.382 135.416 141.814 135.341 142.198 135.192C142.582 135.043 142.924 134.808 143.222 134.488L144.294 135.72C143.91 136.168 143.425 136.515 142.838 136.76C142.262 136.995 141.601 137.112 140.854 137.112ZM151.645 137V125.8H153.357L158.253 133.976H157.357L162.173 125.8H163.885L163.901 137H161.933L161.917 128.888H162.333L158.237 135.72H157.309L153.149 128.888H153.629V137H151.645ZM170.695 137.112C169.82 137.112 169.041 136.925 168.359 136.552C167.676 136.168 167.137 135.645 166.743 134.984C166.348 134.323 166.151 133.571 166.151 132.728C166.151 131.875 166.348 131.123 166.743 130.472C167.137 129.811 167.676 129.293 168.359 128.92C169.041 128.547 169.82 128.36 170.695 128.36C171.58 128.36 172.364 128.547 173.047 128.92C173.74 129.293 174.279 129.805 174.663 130.456C175.057 131.107 175.255 131.864 175.255 132.728C175.255 133.571 175.057 134.323 174.663 134.984C174.279 135.645 173.74 136.168 173.047 136.552C172.364 136.925 171.58 137.112 170.695 137.112ZM170.695 135.4C171.185 135.4 171.623 135.293 172.007 135.08C172.391 134.867 172.689 134.557 172.903 134.152C173.127 133.747 173.239 133.272 173.239 132.728C173.239 132.173 173.127 131.699 172.903 131.304C172.689 130.899 172.391 130.589 172.007 130.376C171.623 130.163 171.191 130.056 170.711 130.056C170.22 130.056 169.783 130.163 169.399 130.376C169.025 130.589 168.727 130.899 168.503 131.304C168.279 131.699 168.167 132.173 168.167 132.728C168.167 133.272 168.279 133.747 168.503 134.152C168.727 134.557 169.025 134.867 169.399 135.08C169.783 135.293 170.215 135.4 170.695 135.4ZM179.325 137L175.661 128.456H177.741L180.893 135.992H179.869L183.133 128.456H185.053L181.389 137H179.325ZM186.423 137V128.456H188.423V137H186.423ZM187.431 127.048C187.057 127.048 186.748 126.931 186.503 126.696C186.268 126.461 186.151 126.179 186.151 125.848C186.151 125.507 186.268 125.224 186.503 125C186.748 124.765 187.057 124.648 187.431 124.648C187.804 124.648 188.108 124.76 188.343 124.984C188.588 125.197 188.711 125.469 188.711 125.8C188.711 126.152 188.593 126.451 188.359 126.696C188.124 126.931 187.815 127.048 187.431 127.048ZM195.184 137.112C194.234 137.112 193.402 136.925 192.688 136.552C191.984 136.168 191.434 135.645 191.04 134.984C190.656 134.323 190.464 133.571 190.464 132.728C190.464 131.875 190.65 131.123 191.024 130.472C191.408 129.811 191.93 129.293 192.592 128.92C193.264 128.547 194.026 128.36 194.88 128.36C195.712 128.36 196.453 128.541 197.104 128.904C197.754 129.267 198.266 129.779 198.64 130.44C199.013 131.101 199.2 131.88 199.2 132.776C199.2 132.861 199.194 132.957 199.184 133.064C199.184 133.171 199.178 133.272 199.168 133.368H192.048V132.04H198.112L197.328 132.456C197.338 131.965 197.237 131.533 197.024 131.16C196.81 130.787 196.517 130.493 196.144 130.28C195.781 130.067 195.36 129.96 194.88 129.96C194.389 129.96 193.957 130.067 193.584 130.28C193.221 130.493 192.933 130.792 192.72 131.176C192.517 131.549 192.416 131.992 192.416 132.504V132.824C192.416 133.336 192.533 133.789 192.768 134.184C193.002 134.579 193.333 134.883 193.76 135.096C194.186 135.309 194.677 135.416 195.232 135.416C195.712 135.416 196.144 135.341 196.528 135.192C196.912 135.043 197.253 134.808 197.552 134.488L198.624 135.72C198.24 136.168 197.754 136.515 197.168 136.76C196.592 136.995 195.93 137.112 195.184 137.112ZM206.423 131.016C206.06 131.016 205.751 130.893 205.495 130.648C205.239 130.392 205.111 130.072 205.111 129.688C205.111 129.283 205.239 128.963 205.495 128.728C205.751 128.483 206.06 128.36 206.423 128.36C206.785 128.36 207.095 128.483 207.351 128.728C207.607 128.963 207.735 129.283 207.735 129.688C207.735 130.072 207.607 130.392 207.351 130.648C207.095 130.893 206.785 131.016 206.423 131.016ZM206.423 137.112C206.06 137.112 205.751 136.989 205.495 136.744C205.239 136.488 205.111 136.168 205.111 135.784C205.111 135.379 205.239 135.059 205.495 134.824C205.751 134.579 206.06 134.456 206.423 134.456C206.785 134.456 207.095 134.579 207.351 134.824C207.607 135.059 207.735 135.379 207.735 135.784C207.735 136.168 207.607 136.488 207.351 136.744C207.095 136.989 206.785 137.112 206.423 137.112ZM211.793 140.104C211.164 139.133 210.678 138.013 210.337 136.744C210.006 135.464 209.841 134.088 209.841 132.616C209.841 131.144 210.006 129.768 210.337 128.488C210.678 127.197 211.164 126.077 211.793 125.128H213.697C213.046 126.301 212.566 127.501 212.257 128.728C211.958 129.944 211.809 131.24 211.809 132.616C211.809 133.992 211.958 135.293 212.257 136.52C212.566 137.736 213.046 138.931 213.697 140.104H211.793Z" fill="#EBEBEF"/>
<path d="M37.3252 161.572H41.6572V162.604H37.3252V161.572ZM37.4452 166H36.2452V157.6H42.1732V158.644H37.4452V166ZM43.8143 166V159.64H44.9663V166H43.8143ZM44.3903 158.416C44.1663 158.416 43.9783 158.344 43.8263 158.2C43.6823 158.056 43.6103 157.88 43.6103 157.672C43.6103 157.456 43.6823 157.276 43.8263 157.132C43.9783 156.988 44.1663 156.916 44.3903 156.916C44.6143 156.916 44.7983 156.988 44.9423 157.132C45.0943 157.268 45.1703 157.44 45.1703 157.648C45.1703 157.864 45.0983 158.048 44.9543 158.2C44.8103 158.344 44.6223 158.416 44.3903 158.416ZM50.6819 159.58C51.2019 159.58 51.6579 159.68 52.0499 159.88C52.4499 160.08 52.7619 160.384 52.9859 160.792C53.2099 161.2 53.3219 161.716 53.3219 162.34V166H52.1699V162.472C52.1699 161.856 52.0179 161.392 51.7139 161.08C51.4179 160.768 50.9979 160.612 50.4539 160.612C50.0459 160.612 49.6899 160.692 49.3859 160.852C49.0819 161.012 48.8459 161.248 48.6779 161.56C48.5179 161.872 48.4379 162.26 48.4379 162.724V166H47.2859V159.64H48.3899V161.356L48.2099 160.9C48.4179 160.484 48.7379 160.16 49.1699 159.928C49.6019 159.696 50.1059 159.58 50.6819 159.58ZM58.2019 166.072C57.5859 166.072 57.0339 165.936 56.5459 165.664C56.0659 165.392 55.6859 165.012 55.4059 164.524C55.1259 164.036 54.9859 163.468 54.9859 162.82C54.9859 162.172 55.1259 161.608 55.4059 161.128C55.6859 160.64 56.0659 160.26 56.5459 159.988C57.0339 159.716 57.5859 159.58 58.2019 159.58C58.7379 159.58 59.2219 159.7 59.6539 159.94C60.0859 160.18 60.4299 160.54 60.6859 161.02C60.9499 161.5 61.0819 162.1 61.0819 162.82C61.0819 163.54 60.9539 164.14 60.6979 164.62C60.4499 165.1 60.1099 165.464 59.6779 165.712C59.2459 165.952 58.7539 166.072 58.2019 166.072ZM58.2979 165.064C58.6979 165.064 59.0579 164.972 59.3779 164.788C59.7059 164.604 59.9619 164.344 60.1459 164.008C60.3379 163.664 60.4339 163.268 60.4339 162.82C60.4339 162.364 60.3379 161.972 60.1459 161.644C59.9619 161.308 59.7059 161.048 59.3779 160.864C59.0579 160.68 58.6979 160.588 58.2979 160.588C57.8899 160.588 57.5259 160.68 57.2059 160.864C56.8859 161.048 56.6299 161.308 56.4379 161.644C56.2459 161.972 56.1499 162.364 56.1499 162.82C56.1499 163.268 56.2459 163.664 56.4379 164.008C56.6299 164.344 56.8859 164.604 57.2059 164.788C57.5259 164.972 57.8899 165.064 58.2979 165.064ZM60.4699 166V164.284L60.5419 162.808L60.4219 161.332V157.096H61.5739V166H60.4699ZM67.4922 168.4C67.1882 168.4 66.8922 168.348 66.6042 168.244C66.3162 168.148 66.0682 168.004 65.8602 167.812L66.3522 166.948C66.5122 167.1 66.6882 167.216 66.8802 167.296C67.0722 167.376 67.2762 167.416 67.4922 167.416C67.7722 167.416 68.0042 167.344 68.1882 167.2C68.3722 167.056 68.5442 166.8 68.7042 166.432L69.1002 165.556L69.2202 165.412L71.7162 159.64H72.8442L69.7602 166.636C69.5762 167.084 69.3682 167.436 69.1362 167.692C68.9122 167.948 68.6642 168.128 68.3922 168.232C68.1202 168.344 67.8202 168.4 67.4922 168.4ZM69.0042 166.204L66.1002 159.64H67.3002L69.7722 165.304L69.0042 166.204ZM76.5876 166.072C75.9476 166.072 75.3796 165.932 74.8836 165.652C74.3876 165.372 73.9956 164.988 73.7076 164.5C73.4196 164.004 73.2756 163.444 73.2756 162.82C73.2756 162.188 73.4196 161.628 73.7076 161.14C73.9956 160.652 74.3876 160.272 74.8836 160C75.3796 159.72 75.9476 159.58 76.5876 159.58C77.2196 159.58 77.7836 159.72 78.2796 160C78.7836 160.272 79.1756 160.652 79.4556 161.14C79.7436 161.62 79.8876 162.18 79.8876 162.82C79.8876 163.452 79.7436 164.012 79.4556 164.5C79.1756 164.988 78.7836 165.372 78.2796 165.652C77.7836 165.932 77.2196 166.072 76.5876 166.072ZM76.5876 165.064C76.9956 165.064 77.3596 164.972 77.6796 164.788C78.0076 164.604 78.2636 164.344 78.4476 164.008C78.6316 163.664 78.7236 163.268 78.7236 162.82C78.7236 162.364 78.6316 161.972 78.4476 161.644C78.2636 161.308 78.0076 161.048 77.6796 160.864C77.3596 160.68 76.9956 160.588 76.5876 160.588C76.1796 160.588 75.8156 160.68 75.4956 160.864C75.1756 161.048 74.9196 161.308 74.7276 161.644C74.5356 161.972 74.4396 162.364 74.4396 162.82C74.4396 163.268 74.5356 163.664 74.7276 164.008C74.9196 164.344 75.1756 164.604 75.4956 164.788C75.8156 164.972 76.1796 165.064 76.5876 165.064ZM84.2767 166.072C83.7327 166.072 83.2527 165.972 82.8367 165.772C82.4287 165.572 82.1087 165.268 81.8767 164.86C81.6527 164.444 81.5407 163.924 81.5407 163.3V159.64H82.6927V163.168C82.6927 163.792 82.8407 164.26 83.1367 164.572C83.4407 164.884 83.8647 165.04 84.4087 165.04C84.8087 165.04 85.1567 164.96 85.4527 164.8C85.7487 164.632 85.9767 164.392 86.1367 164.08C86.2967 163.76 86.3767 163.376 86.3767 162.928V159.64H87.5287V166H86.4367V164.284L86.6167 164.74C86.4087 165.164 86.0967 165.492 85.6807 165.724C85.2647 165.956 84.7967 166.072 84.2767 166.072ZM89.8418 166V159.64H90.9458V161.368L90.8378 160.936C91.0138 160.496 91.3098 160.16 91.7258 159.928C92.1418 159.696 92.6538 159.58 93.2618 159.58V160.696C93.2138 160.688 93.1658 160.684 93.1178 160.684C93.0778 160.684 93.0378 160.684 92.9978 160.684C92.3818 160.684 91.8938 160.868 91.5338 161.236C91.1738 161.604 90.9938 162.136 90.9938 162.832V166H89.8418ZM106.182 159.58C106.694 159.58 107.146 159.68 107.538 159.88C107.93 160.08 108.234 160.384 108.45 160.792C108.674 161.2 108.786 161.716 108.786 162.34V166H107.634V162.472C107.634 161.856 107.49 161.392 107.202 161.08C106.914 160.768 106.51 160.612 105.99 160.612C105.606 160.612 105.27 160.692 104.982 160.852C104.694 161.012 104.47 161.248 104.31 161.56C104.158 161.872 104.082 162.26 104.082 162.724V166H102.93V162.472C102.93 161.856 102.786 161.392 102.498 161.08C102.218 160.768 101.814 160.612 101.286 160.612C100.91 160.612 100.578 160.692 100.29 160.852C100.002 161.012 99.7784 161.248 99.6184 161.56C99.4584 161.872 99.3784 162.26 99.3784 162.724V166H98.2264V159.64H99.3304V161.332L99.1504 160.9C99.3504 160.484 99.6584 160.16 100.074 159.928C100.49 159.696 100.974 159.58 101.526 159.58C102.134 159.58 102.658 159.732 103.098 160.036C103.538 160.332 103.826 160.784 103.962 161.392L103.494 161.2C103.686 160.712 104.022 160.32 104.502 160.024C104.982 159.728 105.542 159.58 106.182 159.58ZM113.75 166.072C113.11 166.072 112.542 165.932 112.046 165.652C111.55 165.372 111.158 164.988 110.87 164.5C110.582 164.004 110.438 163.444 110.438 162.82C110.438 162.188 110.582 161.628 110.87 161.14C111.158 160.652 111.55 160.272 112.046 160C112.542 159.72 113.11 159.58 113.75 159.58C114.382 159.58 114.946 159.72 115.442 160C115.946 160.272 116.338 160.652 116.618 161.14C116.906 161.62 117.05 162.18 117.05 162.82C117.05 163.452 116.906 164.012 116.618 164.5C116.338 164.988 115.946 165.372 115.442 165.652C114.946 165.932 114.382 166.072 113.75 166.072ZM113.75 165.064C114.158 165.064 114.522 164.972 114.842 164.788C115.17 164.604 115.426 164.344 115.61 164.008C115.794 163.664 115.886 163.268 115.886 162.82C115.886 162.364 115.794 161.972 115.61 161.644C115.426 161.308 115.17 161.048 114.842 160.864C114.522 160.68 114.158 160.588 113.75 160.588C113.342 160.588 112.978 160.68 112.658 160.864C112.338 161.048 112.082 161.308 111.89 161.644C111.698 161.972 111.602 162.364 111.602 162.82C111.602 163.268 111.698 163.664 111.89 164.008C112.082 164.344 112.338 164.604 112.658 164.788C112.978 164.972 113.342 165.064 113.75 165.064ZM120.255 166L117.471 159.64H118.671L121.143 165.4H120.567L123.087 159.64H124.215L121.431 166H120.255ZM125.411 166V159.64H126.563V166H125.411ZM125.987 158.416C125.763 158.416 125.575 158.344 125.423 158.2C125.279 158.056 125.207 157.88 125.207 157.672C125.207 157.456 125.279 157.276 125.423 157.132C125.575 156.988 125.763 156.916 125.987 156.916C126.211 156.916 126.395 156.988 126.539 157.132C126.691 157.268 126.767 157.44 126.767 157.648C126.767 157.864 126.695 158.048 126.551 158.2C126.407 158.344 126.219 158.416 125.987 158.416ZM131.714 166.072C131.034 166.072 130.434 165.932 129.914 165.652C129.402 165.372 129.002 164.988 128.714 164.5C128.434 164.012 128.294 163.452 128.294 162.82C128.294 162.188 128.43 161.628 128.702 161.14C128.982 160.652 129.362 160.272 129.842 160C130.33 159.72 130.878 159.58 131.486 159.58C132.102 159.58 132.646 159.716 133.118 159.988C133.59 160.26 133.958 160.644 134.222 161.14C134.494 161.628 134.63 162.2 134.63 162.856C134.63 162.904 134.626 162.96 134.618 163.024C134.618 163.088 134.614 163.148 134.606 163.204H129.194V162.376H134.006L133.538 162.664C133.546 162.256 133.462 161.892 133.286 161.572C133.11 161.252 132.866 161.004 132.554 160.828C132.25 160.644 131.894 160.552 131.486 160.552C131.086 160.552 130.73 160.644 130.418 160.828C130.106 161.004 129.862 161.256 129.686 161.584C129.51 161.904 129.422 162.272 129.422 162.688V162.88C129.422 163.304 129.518 163.684 129.71 164.02C129.91 164.348 130.186 164.604 130.538 164.788C130.89 164.972 131.294 165.064 131.75 165.064C132.126 165.064 132.466 165 132.77 164.872C133.082 164.744 133.354 164.552 133.586 164.296L134.222 165.04C133.934 165.376 133.574 165.632 133.142 165.808C132.718 165.984 132.242 166.072 131.714 166.072ZM143.064 166.072C142.52 166.072 142.028 165.952 141.588 165.712C141.156 165.464 140.812 165.1 140.556 164.62C140.308 164.14 140.184 163.54 140.184 162.82C140.184 162.1 140.312 161.5 140.568 161.02C140.832 160.54 141.18 160.18 141.612 159.94C142.052 159.7 142.536 159.58 143.064 159.58C143.688 159.58 144.24 159.716 144.72 159.988C145.2 160.26 145.58 160.64 145.86 161.128C146.14 161.608 146.28 162.172 146.28 162.82C146.28 163.468 146.14 164.036 145.86 164.524C145.58 165.012 145.2 165.392 144.72 165.664C144.24 165.936 143.688 166.072 143.064 166.072ZM139.692 166V157.096H140.844V161.332L140.724 162.808L140.796 164.284V166H139.692ZM142.968 165.064C143.376 165.064 143.74 164.972 144.06 164.788C144.388 164.604 144.644 164.344 144.828 164.008C145.02 163.664 145.116 163.268 145.116 162.82C145.116 162.364 145.02 161.972 144.828 161.644C144.644 161.308 144.388 161.048 144.06 160.864C143.74 160.68 143.376 160.588 142.968 160.588C142.568 160.588 142.204 160.68 141.876 160.864C141.556 161.048 141.3 161.308 141.108 161.644C140.924 161.972 140.832 162.364 140.832 162.82C140.832 163.268 140.924 163.664 141.108 164.008C141.3 164.344 141.556 164.604 141.876 164.788C142.204 164.972 142.568 165.064 142.968 165.064ZM148.092 168.4C147.788 168.4 147.492 168.348 147.204 168.244C146.916 168.148 146.668 168.004 146.46 167.812L146.952 166.948C147.112 167.1 147.288 167.216 147.48 167.296C147.672 167.376 147.876 167.416 148.092 167.416C148.372 167.416 148.604 167.344 148.788 167.2C148.972 167.056 149.144 166.8 149.304 166.432L149.7 165.556L149.82 165.412L152.316 159.64H153.444L150.36 166.636C150.176 167.084 149.968 167.436 149.736 167.692C149.512 167.948 149.264 168.128 148.992 168.232C148.72 168.344 148.42 168.4 148.092 168.4ZM149.604 166.204L146.7 159.64H147.9L150.372 165.304L149.604 166.204ZM159.818 166V158.644H156.938V157.6H163.886V158.644H161.006V166H159.818ZM165.023 168.4C164.719 168.4 164.423 168.348 164.135 168.244C163.847 168.148 163.599 168.004 163.391 167.812L163.883 166.948C164.043 167.1 164.219 167.216 164.411 167.296C164.603 167.376 164.807 167.416 165.023 167.416C165.303 167.416 165.535 167.344 165.719 167.2C165.903 167.056 166.075 166.8 166.235 166.432L166.631 165.556L166.751 165.412L169.247 159.64H170.375L167.291 166.636C167.107 167.084 166.899 167.436 166.667 167.692C166.443 167.948 166.195 168.128 165.923 168.232C165.651 168.344 165.351 168.4 165.023 168.4ZM166.535 166.204L163.631 159.64H164.831L167.303 165.304L166.535 166.204ZM174.942 166.072C174.414 166.072 173.93 165.952 173.49 165.712C173.058 165.464 172.71 165.1 172.446 164.62C172.19 164.14 172.062 163.54 172.062 162.82C172.062 162.1 172.186 161.5 172.434 161.02C172.69 160.54 173.034 160.18 173.466 159.94C173.906 159.7 174.398 159.58 174.942 159.58C175.566 159.58 176.118 159.716 176.598 159.988C177.078 160.26 177.458 160.64 177.738 161.128C178.018 161.608 178.158 162.172 178.158 162.82C178.158 163.468 178.018 164.036 177.738 164.524C177.458 165.012 177.078 165.392 176.598 165.664C176.118 165.936 175.566 166.072 174.942 166.072ZM171.57 168.328V159.64H172.674V161.356L172.602 162.832L172.722 164.308V168.328H171.57ZM174.846 165.064C175.254 165.064 175.618 164.972 175.938 164.788C176.266 164.604 176.522 164.344 176.706 164.008C176.898 163.664 176.994 163.268 176.994 162.82C176.994 162.364 176.898 161.972 176.706 161.644C176.522 161.308 176.266 161.048 175.938 160.864C175.618 160.68 175.254 160.588 174.846 160.588C174.446 160.588 174.082 160.68 173.754 160.864C173.434 161.048 173.178 161.308 172.986 161.644C172.802 161.972 172.71 162.364 172.71 162.82C172.71 163.268 172.802 163.664 172.986 164.008C173.178 164.344 173.434 164.604 173.754 164.788C174.082 164.972 174.446 165.064 174.846 165.064ZM182.701 166.072C182.021 166.072 181.421 165.932 180.901 165.652C180.389 165.372 179.989 164.988 179.701 164.5C179.421 164.012 179.281 163.452 179.281 162.82C179.281 162.188 179.417 161.628 179.689 161.14C179.969 160.652 180.349 160.272 180.829 160C181.317 159.72 181.865 159.58 182.473 159.58C183.089 159.58 183.633 159.716 184.105 159.988C184.577 160.26 184.945 160.644 185.209 161.14C185.481 161.628 185.617 162.2 185.617 162.856C185.617 162.904 185.613 162.96 185.605 163.024C185.605 163.088 185.601 163.148 185.593 163.204H180.181V162.376H184.993L184.525 162.664C184.533 162.256 184.449 161.892 184.273 161.572C184.097 161.252 183.853 161.004 183.541 160.828C183.237 160.644 182.881 160.552 182.473 160.552C182.073 160.552 181.717 160.644 181.405 160.828C181.093 161.004 180.849 161.256 180.673 161.584C180.497 161.904 180.409 162.272 180.409 162.688V162.88C180.409 163.304 180.505 163.684 180.697 164.02C180.897 164.348 181.173 164.604 181.525 164.788C181.877 164.972 182.281 165.064 182.737 165.064C183.113 165.064 183.453 165 183.757 164.872C184.069 164.744 184.341 164.552 184.573 164.296L185.209 165.04C184.921 165.376 184.561 165.632 184.129 165.808C183.705 165.984 183.229 166.072 182.701 166.072ZM192.864 166.072C192.224 166.072 191.728 165.9 191.376 165.556C191.024 165.212 190.848 164.72 190.848 164.08V158.248H192V164.032C192 164.376 192.084 164.64 192.252 164.824C192.428 165.008 192.676 165.1 192.996 165.1C193.356 165.1 193.656 165 193.896 164.8L194.256 165.628C194.08 165.78 193.868 165.892 193.62 165.964C193.38 166.036 193.128 166.072 192.864 166.072ZM189.768 160.588V159.64H193.824V160.588H189.768ZM195.769 166V159.64H196.921V166H195.769ZM196.345 158.416C196.121 158.416 195.933 158.344 195.781 158.2C195.637 158.056 195.565 157.88 195.565 157.672C195.565 157.456 195.637 157.276 195.781 157.132C195.933 156.988 196.121 156.916 196.345 156.916C196.569 156.916 196.753 156.988 196.897 157.132C197.049 157.268 197.125 157.44 197.125 157.648C197.125 157.864 197.053 158.048 196.909 158.2C196.765 158.344 196.577 158.416 196.345 158.416ZM201.424 166.072C200.784 166.072 200.288 165.9 199.936 165.556C199.584 165.212 199.408 164.72 199.408 164.08V158.248H200.56V164.032C200.56 164.376 200.644 164.64 200.812 164.824C200.988 165.008 201.236 165.1 201.556 165.1C201.916 165.1 202.216 165 202.456 164.8L202.816 165.628C202.64 165.78 202.428 165.892 202.18 165.964C201.94 166.036 201.688 166.072 201.424 166.072ZM198.328 160.588V159.64H202.384V160.588H198.328ZM204.329 166V157.096H205.481V166H204.329ZM210.632 166.072C209.952 166.072 209.352 165.932 208.832 165.652C208.32 165.372 207.92 164.988 207.632 164.5C207.352 164.012 207.212 163.452 207.212 162.82C207.212 162.188 207.348 161.628 207.62 161.14C207.9 160.652 208.28 160.272 208.76 160C209.248 159.72 209.796 159.58 210.404 159.58C211.02 159.58 211.564 159.716 212.036 159.988C212.508 160.26 212.876 160.644 213.14 161.14C213.412 161.628 213.548 162.2 213.548 162.856C213.548 162.904 213.544 162.96 213.536 163.024C213.536 163.088 213.532 163.148 213.524 163.204H208.112V162.376H212.924L212.456 162.664C212.464 162.256 212.38 161.892 212.204 161.572C212.028 161.252 211.784 161.004 211.472 160.828C211.168 160.644 210.812 160.552 210.404 160.552C210.004 160.552 209.648 160.644 209.336 160.828C209.024 161.004 208.78 161.256 208.604 161.584C208.428 161.904 208.34 162.272 208.34 162.688V162.88C208.34 163.304 208.436 163.684 208.628 164.02C208.828 164.348 209.104 164.604 209.456 164.788C209.808 164.972 210.212 165.064 210.668 165.064C211.044 165.064 211.384 165 211.688 164.872C212 164.744 212.272 164.552 212.504 164.296L213.14 165.04C212.852 165.376 212.492 165.632 212.06 165.808C211.636 165.984 211.16 166.072 210.632 166.072ZM214.812 167.776L215.412 165.352L215.568 166.048C215.336 166.048 215.14 165.976 214.98 165.832C214.828 165.688 214.752 165.492 214.752 165.244C214.752 165.004 214.828 164.808 214.98 164.656C215.14 164.504 215.332 164.428 215.556 164.428C215.788 164.428 215.976 164.508 216.12 164.668C216.264 164.82 216.336 165.012 216.336 165.244C216.336 165.324 216.328 165.404 216.312 165.484C216.304 165.556 216.284 165.644 216.252 165.748C216.228 165.844 216.188 165.964 216.132 166.108L215.568 167.776H214.812ZM65.4327 185.072C64.7847 185.072 64.2047 184.932 63.6927 184.652C63.1887 184.372 62.7927 183.988 62.5047 183.5C62.2167 183.012 62.0727 182.452 62.0727 181.82C62.0727 181.188 62.2167 180.628 62.5047 180.14C62.7927 179.652 63.1887 179.272 63.6927 179C64.2047 178.72 64.7847 178.58 65.4327 178.58C66.0087 178.58 66.5207 178.696 66.9687 178.928C67.4247 179.152 67.7767 179.488 68.0247 179.936L67.1487 180.5C66.9407 180.188 66.6847 179.96 66.3807 179.816C66.0847 179.664 65.7647 179.588 65.4207 179.588C65.0047 179.588 64.6327 179.68 64.3047 179.864C63.9767 180.048 63.7167 180.308 63.5247 180.644C63.3327 180.972 63.2367 181.364 63.2367 181.82C63.2367 182.276 63.3327 182.672 63.5247 183.008C63.7167 183.344 63.9767 183.604 64.3047 183.788C64.6327 183.972 65.0047 184.064 65.4207 184.064C65.7647 184.064 66.0847 183.992 66.3807 183.848C66.6847 183.696 66.9407 183.464 67.1487 183.152L68.0247 183.704C67.7767 184.144 67.4247 184.484 66.9687 184.724C66.5207 184.956 66.0087 185.072 65.4327 185.072ZM73.5841 185V183.656L73.5241 183.404V181.112C73.5241 180.624 73.3801 180.248 73.0921 179.984C72.8121 179.712 72.3881 179.576 71.8201 179.576C71.4441 179.576 71.0761 179.64 70.7161 179.768C70.3561 179.888 70.0521 180.052 69.8041 180.26L69.3241 179.396C69.6521 179.132 70.0441 178.932 70.5001 178.796C70.9641 178.652 71.4481 178.58 71.9521 178.58C72.8241 178.58 73.4961 178.792 73.9681 179.216C74.4401 179.64 74.6761 180.288 74.6761 181.16V185H73.5841ZM71.4961 185.072C71.0241 185.072 70.6081 184.992 70.2481 184.832C69.8961 184.672 69.6241 184.452 69.4321 184.172C69.2401 183.884 69.1441 183.56 69.1441 183.2C69.1441 182.856 69.2241 182.544 69.3841 182.264C69.5521 181.984 69.8201 181.76 70.1881 181.592C70.5641 181.424 71.0681 181.34 71.7001 181.34H73.7161V182.168H71.7481C71.1721 182.168 70.7841 182.264 70.5841 182.456C70.3841 182.648 70.2841 182.88 70.2841 183.152C70.2841 183.464 70.4081 183.716 70.6561 183.908C70.9041 184.092 71.2481 184.184 71.6881 184.184C72.1201 184.184 72.4961 184.088 72.8161 183.896C73.1441 183.704 73.3801 183.424 73.5241 183.056L73.7521 183.848C73.6001 184.224 73.3321 184.524 72.9481 184.748C72.5641 184.964 72.0801 185.072 71.4961 185.072ZM79.112 185.072C78.472 185.072 77.976 184.9 77.624 184.556C77.272 184.212 77.096 183.72 77.096 183.08V177.248H78.248V183.032C78.248 183.376 78.332 183.64 78.5 183.824C78.676 184.008 78.924 184.1 79.244 184.1C79.604 184.1 79.904 184 80.144 183.8L80.504 184.628C80.328 184.78 80.116 184.892 79.868 184.964C79.628 185.036 79.376 185.072 79.112 185.072ZM76.016 179.588V178.64H80.072V179.588H76.016ZM84.6378 185.072C83.9578 185.072 83.3578 184.932 82.8378 184.652C82.3258 184.372 81.9258 183.988 81.6378 183.5C81.3578 183.012 81.2178 182.452 81.2178 181.82C81.2178 181.188 81.3538 180.628 81.6258 180.14C81.9058 179.652 82.2858 179.272 82.7658 179C83.2538 178.72 83.8018 178.58 84.4098 178.58C85.0258 178.58 85.5698 178.716 86.0418 178.988C86.5138 179.26 86.8818 179.644 87.1458 180.14C87.4178 180.628 87.5538 181.2 87.5538 181.856C87.5538 181.904 87.5498 181.96 87.5418 182.024C87.5418 182.088 87.5378 182.148 87.5298 182.204H82.1178V181.376H86.9298L86.4618 181.664C86.4698 181.256 86.3858 180.892 86.2098 180.572C86.0338 180.252 85.7898 180.004 85.4778 179.828C85.1738 179.644 84.8178 179.552 84.4098 179.552C84.0098 179.552 83.6538 179.644 83.3418 179.828C83.0298 180.004 82.7858 180.256 82.6098 180.584C82.4338 180.904 82.3458 181.272 82.3458 181.688V181.88C82.3458 182.304 82.4418 182.684 82.6338 183.02C82.8338 183.348 83.1098 183.604 83.4618 183.788C83.8138 183.972 84.2178 184.064 84.6738 184.064C85.0498 184.064 85.3898 184 85.6938 183.872C86.0058 183.744 86.2778 183.552 86.5098 183.296L87.1458 184.04C86.8578 184.376 86.4978 184.632 86.0658 184.808C85.6418 184.984 85.1658 185.072 84.6378 185.072ZM92.0575 187.4C91.4735 187.4 90.9055 187.316 90.3535 187.148C89.8095 186.988 89.3655 186.756 89.0215 186.452L89.5735 185.564C89.8695 185.82 90.2335 186.02 90.6655 186.164C91.0975 186.316 91.5495 186.392 92.0215 186.392C92.7735 186.392 93.3255 186.216 93.6775 185.864C94.0295 185.512 94.2055 184.976 94.2055 184.256V182.912L94.3255 181.652L94.2655 180.38V178.64H95.3575V184.136C95.3575 185.256 95.0775 186.08 94.5175 186.608C93.9575 187.136 93.1375 187.4 92.0575 187.4ZM91.9135 184.736C91.2975 184.736 90.7455 184.608 90.2575 184.352C89.7775 184.088 89.3935 183.724 89.1055 183.26C88.8255 182.796 88.6855 182.26 88.6855 181.652C88.6855 181.036 88.8255 180.5 89.1055 180.044C89.3935 179.58 89.7775 179.22 90.2575 178.964C90.7455 178.708 91.2975 178.58 91.9135 178.58C92.4575 178.58 92.9535 178.692 93.4015 178.916C93.8495 179.132 94.2055 179.468 94.4695 179.924C94.7415 180.38 94.8775 180.956 94.8775 181.652C94.8775 182.34 94.7415 182.912 94.4695 183.368C94.2055 183.824 93.8495 184.168 93.4015 184.4C92.9535 184.624 92.4575 184.736 91.9135 184.736ZM92.0455 183.728C92.4695 183.728 92.8455 183.64 93.1735 183.464C93.5015 183.288 93.7575 183.044 93.9415 182.732C94.1335 182.42 94.2295 182.06 94.2295 181.652C94.2295 181.244 94.1335 180.884 93.9415 180.572C93.7575 180.26 93.5015 180.02 93.1735 179.852C92.8455 179.676 92.4695 179.588 92.0455 179.588C91.6215 179.588 91.2415 179.676 90.9055 179.852C90.5775 180.02 90.3175 180.26 90.1255 180.572C89.9415 180.884 89.8495 181.244 89.8495 181.652C89.8495 182.06 89.9415 182.42 90.1255 182.732C90.3175 183.044 90.5775 183.288 90.9055 183.464C91.2415 183.64 91.6215 183.728 92.0455 183.728ZM100.403 185.072C99.7626 185.072 99.1946 184.932 98.6986 184.652C98.2026 184.372 97.8106 183.988 97.5226 183.5C97.2346 183.004 97.0906 182.444 97.0906 181.82C97.0906 181.188 97.2346 180.628 97.5226 180.14C97.8106 179.652 98.2026 179.272 98.6986 179C99.1946 178.72 99.7626 178.58 100.403 178.58C101.035 178.58 101.599 178.72 102.095 179C102.599 179.272 102.991 179.652 103.271 180.14C103.559 180.62 103.703 181.18 103.703 181.82C103.703 182.452 103.559 183.012 103.271 183.5C102.991 183.988 102.599 184.372 102.095 184.652C101.599 184.932 101.035 185.072 100.403 185.072ZM100.403 184.064C100.811 184.064 101.175 183.972 101.495 183.788C101.823 183.604 102.079 183.344 102.263 183.008C102.447 182.664 102.539 182.268 102.539 181.82C102.539 181.364 102.447 180.972 102.263 180.644C102.079 180.308 101.823 180.048 101.495 179.864C101.175 179.68 100.811 179.588 100.403 179.588C99.9946 179.588 99.6306 179.68 99.3106 179.864C98.9906 180.048 98.7346 180.308 98.5426 180.644C98.3506 180.972 98.2546 181.364 98.2546 181.82C98.2546 182.268 98.3506 182.664 98.5426 183.008C98.7346 183.344 98.9906 183.604 99.3106 183.788C99.6306 183.972 99.9946 184.064 100.403 184.064ZM105.416 185V178.64H106.52V180.368L106.412 179.936C106.588 179.496 106.884 179.16 107.3 178.928C107.716 178.696 108.228 178.58 108.836 178.58V179.696C108.788 179.688 108.74 179.684 108.692 179.684C108.652 179.684 108.612 179.684 108.572 179.684C107.956 179.684 107.468 179.868 107.108 180.236C106.748 180.604 106.568 181.136 106.568 181.832V185H105.416ZM110.376 185V178.64H111.528V185H110.376ZM110.952 177.416C110.728 177.416 110.54 177.344 110.388 177.2C110.244 177.056 110.172 176.88 110.172 176.672C110.172 176.456 110.244 176.276 110.388 176.132C110.54 175.988 110.728 175.916 110.952 175.916C111.176 175.916 111.36 175.988 111.504 176.132C111.656 176.268 111.732 176.44 111.732 176.648C111.732 176.864 111.66 177.048 111.516 177.2C111.372 177.344 111.184 177.416 110.952 177.416ZM116.679 185.072C115.999 185.072 115.399 184.932 114.879 184.652C114.367 184.372 113.967 183.988 113.679 183.5C113.399 183.012 113.259 182.452 113.259 181.82C113.259 181.188 113.395 180.628 113.667 180.14C113.947 179.652 114.327 179.272 114.807 179C115.295 178.72 115.843 178.58 116.451 178.58C117.067 178.58 117.611 178.716 118.083 178.988C118.555 179.26 118.923 179.644 119.187 180.14C119.459 180.628 119.595 181.2 119.595 181.856C119.595 181.904 119.591 181.96 119.583 182.024C119.583 182.088 119.579 182.148 119.571 182.204H114.159V181.376H118.971L118.503 181.664C118.511 181.256 118.427 180.892 118.251 180.572C118.075 180.252 117.831 180.004 117.519 179.828C117.215 179.644 116.859 179.552 116.451 179.552C116.051 179.552 115.695 179.644 115.383 179.828C115.071 180.004 114.827 180.256 114.651 180.584C114.475 180.904 114.387 181.272 114.387 181.688V181.88C114.387 182.304 114.483 182.684 114.675 183.02C114.875 183.348 115.151 183.604 115.503 183.788C115.855 183.972 116.259 184.064 116.715 184.064C117.091 184.064 117.431 184 117.735 183.872C118.047 183.744 118.319 183.552 118.551 183.296L119.187 184.04C118.899 184.376 118.539 184.632 118.107 184.808C117.683 184.984 117.207 185.072 116.679 185.072ZM123.139 185.072C122.611 185.072 122.107 185 121.627 184.856C121.155 184.712 120.783 184.536 120.511 184.328L120.991 183.416C121.263 183.6 121.599 183.756 121.999 183.884C122.399 184.012 122.807 184.076 123.223 184.076C123.759 184.076 124.143 184 124.375 183.848C124.615 183.696 124.735 183.484 124.735 183.212C124.735 183.012 124.663 182.856 124.519 182.744C124.375 182.632 124.183 182.548 123.943 182.492C123.711 182.436 123.451 182.388 123.163 182.348C122.875 182.3 122.587 182.244 122.299 182.18C122.011 182.108 121.747 182.012 121.507 181.892C121.267 181.764 121.075 181.592 120.931 181.376C120.787 181.152 120.715 180.856 120.715 180.488C120.715 180.104 120.823 179.768 121.039 179.48C121.255 179.192 121.559 178.972 121.951 178.82C122.351 178.66 122.823 178.58 123.367 178.58C123.783 178.58 124.203 178.632 124.627 178.736C125.059 178.832 125.411 178.972 125.683 179.156L125.191 180.068C124.903 179.876 124.603 179.744 124.291 179.672C123.979 179.6 123.667 179.564 123.355 179.564C122.851 179.564 122.475 179.648 122.227 179.816C121.979 179.976 121.855 180.184 121.855 180.44C121.855 180.656 121.927 180.824 122.071 180.944C122.223 181.056 122.415 181.144 122.647 181.208C122.887 181.272 123.151 181.328 123.439 181.376C123.727 181.416 124.015 181.472 124.303 181.544C124.591 181.608 124.851 181.7 125.083 181.82C125.323 181.94 125.515 182.108 125.659 182.324C125.811 182.54 125.887 182.828 125.887 183.188C125.887 183.572 125.775 183.904 125.551 184.184C125.327 184.464 125.011 184.684 124.603 184.844C124.195 184.996 123.707 185.072 123.139 185.072ZM126.991 186.776L127.591 184.352L127.747 185.048C127.515 185.048 127.319 184.976 127.159 184.832C127.007 184.688 126.931 184.492 126.931 184.244C126.931 184.004 127.007 183.808 127.159 183.656C127.319 183.504 127.511 183.428 127.735 183.428C127.967 183.428 128.155 183.508 128.299 183.668C128.443 183.82 128.515 184.012 128.515 184.244C128.515 184.324 128.507 184.404 128.491 184.484C128.483 184.556 128.463 184.644 128.431 184.748C128.407 184.844 128.367 184.964 128.311 185.108L127.747 186.776H126.991ZM133.904 187.4C133.6 187.4 133.304 187.348 133.016 187.244C132.728 187.148 132.48 187.004 132.272 186.812L132.764 185.948C132.924 186.1 133.1 186.216 133.292 186.296C133.484 186.376 133.688 186.416 133.904 186.416C134.184 186.416 134.416 186.344 134.6 186.2C134.784 186.056 134.956 185.8 135.116 185.432L135.512 184.556L135.632 184.412L138.128 178.64H139.256L136.172 185.636C135.988 186.084 135.78 186.436 135.548 186.692C135.324 186.948 135.076 187.128 134.804 187.232C134.532 187.344 134.232 187.4 133.904 187.4ZM135.416 185.204L132.512 178.64H133.712L136.184 184.304L135.416 185.204ZM143.107 185.072C142.427 185.072 141.827 184.932 141.307 184.652C140.795 184.372 140.395 183.988 140.107 183.5C139.827 183.012 139.687 182.452 139.687 181.82C139.687 181.188 139.823 180.628 140.095 180.14C140.375 179.652 140.755 179.272 141.235 179C141.723 178.72 142.271 178.58 142.879 178.58C143.495 178.58 144.039 178.716 144.511 178.988C144.983 179.26 145.351 179.644 145.615 180.14C145.887 180.628 146.023 181.2 146.023 181.856C146.023 181.904 146.019 181.96 146.011 182.024C146.011 182.088 146.007 182.148 145.999 182.204H140.587V181.376H145.399L144.931 181.664C144.939 181.256 144.855 180.892 144.679 180.572C144.503 180.252 144.259 180.004 143.947 179.828C143.643 179.644 143.287 179.552 142.879 179.552C142.479 179.552 142.123 179.644 141.811 179.828C141.499 180.004 141.255 180.256 141.079 180.584C140.903 180.904 140.815 181.272 140.815 181.688V181.88C140.815 182.304 140.911 182.684 141.103 183.02C141.303 183.348 141.579 183.604 141.931 183.788C142.283 183.972 142.687 184.064 143.143 184.064C143.519 184.064 143.859 184 144.163 183.872C144.475 183.744 144.747 183.552 144.979 183.296L145.615 184.04C145.327 184.376 144.967 184.632 144.535 184.808C144.111 184.984 143.635 185.072 143.107 185.072ZM151.515 185V183.656L151.455 183.404V181.112C151.455 180.624 151.311 180.248 151.023 179.984C150.743 179.712 150.319 179.576 149.751 179.576C149.375 179.576 149.007 179.64 148.647 179.768C148.287 179.888 147.983 180.052 147.735 180.26L147.255 179.396C147.583 179.132 147.975 178.932 148.431 178.796C148.895 178.652 149.379 178.58 149.883 178.58C150.755 178.58 151.427 178.792 151.899 179.216C152.371 179.64 152.607 180.288 152.607 181.16V185H151.515ZM149.427 185.072C148.955 185.072 148.539 184.992 148.179 184.832C147.827 184.672 147.555 184.452 147.363 184.172C147.171 183.884 147.075 183.56 147.075 183.2C147.075 182.856 147.155 182.544 147.315 182.264C147.483 181.984 147.751 181.76 148.119 181.592C148.495 181.424 148.999 181.34 149.631 181.34H151.647V182.168H149.679C149.103 182.168 148.715 182.264 148.515 182.456C148.315 182.648 148.215 182.88 148.215 183.152C148.215 183.464 148.339 183.716 148.587 183.908C148.835 184.092 149.179 184.184 149.619 184.184C150.051 184.184 150.427 184.088 150.747 183.896C151.075 183.704 151.311 183.424 151.455 183.056L151.683 183.848C151.531 184.224 151.263 184.524 150.879 184.748C150.495 184.964 150.011 185.072 149.427 185.072ZM154.859 185V178.64H155.963V180.368L155.855 179.936C156.031 179.496 156.327 179.16 156.743 178.928C157.159 178.696 157.671 178.58 158.279 178.58V179.696C158.231 179.688 158.183 179.684 158.135 179.684C158.095 179.684 158.055 179.684 158.015 179.684C157.399 179.684 156.911 179.868 156.551 180.236C156.191 180.604 156.011 181.136 156.011 181.832V185H154.859ZM161.713 185.072C161.185 185.072 160.681 185 160.201 184.856C159.729 184.712 159.357 184.536 159.085 184.328L159.565 183.416C159.837 183.6 160.173 183.756 160.573 183.884C160.973 184.012 161.381 184.076 161.797 184.076C162.333 184.076 162.717 184 162.949 183.848C163.189 183.696 163.309 183.484 163.309 183.212C163.309 183.012 163.237 182.856 163.093 182.744C162.949 182.632 162.757 182.548 162.517 182.492C162.285 182.436 162.025 182.388 161.737 182.348C161.449 182.3 161.161 182.244 160.873 182.18C160.585 182.108 160.321 182.012 160.081 181.892C159.841 181.764 159.649 181.592 159.505 181.376C159.361 181.152 159.289 180.856 159.289 180.488C159.289 180.104 159.397 179.768 159.613 179.48C159.829 179.192 160.133 178.972 160.525 178.82C160.925 178.66 161.397 178.58 161.941 178.58C162.357 178.58 162.777 178.632 163.201 178.736C163.633 178.832 163.985 178.972 164.257 179.156L163.765 180.068C163.477 179.876 163.177 179.744 162.865 179.672C162.553 179.6 162.241 179.564 161.929 179.564C161.425 179.564 161.049 179.648 160.801 179.816C160.553 179.976 160.429 180.184 160.429 180.44C160.429 180.656 160.501 180.824 160.645 180.944C160.797 181.056 160.989 181.144 161.221 181.208C161.461 181.272 161.725 181.328 162.013 181.376C162.301 181.416 162.589 181.472 162.877 181.544C163.165 181.608 163.425 181.7 163.657 181.82C163.897 181.94 164.089 182.108 164.233 182.324C164.385 182.54 164.461 182.828 164.461 183.188C164.461 183.572 164.349 183.904 164.125 184.184C163.901 184.464 163.585 184.684 163.177 184.844C162.769 184.996 162.281 185.072 161.713 185.072ZM165.565 186.776L166.165 184.352L166.321 185.048C166.089 185.048 165.893 184.976 165.733 184.832C165.581 184.688 165.505 184.492 165.505 184.244C165.505 184.004 165.581 183.808 165.733 183.656C165.893 183.504 166.085 183.428 166.309 183.428C166.541 183.428 166.729 183.508 166.873 183.668C167.017 183.82 167.089 184.012 167.089 184.244C167.089 184.324 167.081 184.404 167.065 184.484C167.057 184.556 167.037 184.644 167.005 184.748C166.981 184.844 166.941 184.964 166.885 185.108L166.321 186.776H165.565ZM175.034 185.072C174.354 185.072 173.754 184.932 173.234 184.652C172.722 184.372 172.322 183.988 172.034 183.5C171.754 183.012 171.614 182.452 171.614 181.82C171.614 181.188 171.75 180.628 172.022 180.14C172.302 179.652 172.682 179.272 173.162 179C173.65 178.72 174.198 178.58 174.806 178.58C175.422 178.58 175.966 178.716 176.438 178.988C176.91 179.26 177.278 179.644 177.542 180.14C177.814 180.628 177.95 181.2 177.95 181.856C177.95 181.904 177.946 181.96 177.938 182.024C177.938 182.088 177.934 182.148 177.926 182.204H172.514V181.376H177.326L176.858 181.664C176.866 181.256 176.782 180.892 176.606 180.572C176.43 180.252 176.186 180.004 175.874 179.828C175.57 179.644 175.214 179.552 174.806 179.552C174.406 179.552 174.05 179.644 173.738 179.828C173.426 180.004 173.182 180.256 173.006 180.584C172.83 180.904 172.742 181.272 172.742 181.688V181.88C172.742 182.304 172.838 182.684 173.03 183.02C173.23 183.348 173.506 183.604 173.858 183.788C174.21 183.972 174.614 184.064 175.07 184.064C175.446 184.064 175.786 184 176.09 183.872C176.402 183.744 176.674 183.552 176.906 183.296L177.542 184.04C177.254 184.376 176.894 184.632 176.462 184.808C176.038 184.984 175.562 185.072 175.034 185.072ZM181.854 185.072C181.214 185.072 180.718 184.9 180.366 184.556C180.014 184.212 179.838 183.72 179.838 183.08V177.248H180.99V183.032C180.99 183.376 181.074 183.64 181.242 183.824C181.418 184.008 181.666 184.1 181.986 184.1C182.346 184.1 182.646 184 182.886 183.8L183.246 184.628C183.07 184.78 182.858 184.892 182.61 184.964C182.37 185.036 182.118 185.072 181.854 185.072ZM178.758 179.588V178.64H182.814V179.588H178.758ZM187.32 185.072C186.672 185.072 186.092 184.932 185.58 184.652C185.076 184.372 184.68 183.988 184.392 183.5C184.104 183.012 183.96 182.452 183.96 181.82C183.96 181.188 184.104 180.628 184.392 180.14C184.68 179.652 185.076 179.272 185.58 179C186.092 178.72 186.672 178.58 187.32 178.58C187.896 178.58 188.408 178.696 188.856 178.928C189.312 179.152 189.664 179.488 189.912 179.936L189.036 180.5C188.828 180.188 188.572 179.96 188.268 179.816C187.972 179.664 187.652 179.588 187.308 179.588C186.892 179.588 186.52 179.68 186.192 179.864C185.864 180.048 185.604 180.308 185.412 180.644C185.22 180.972 185.124 181.364 185.124 181.82C185.124 182.276 185.22 182.672 185.412 183.008C185.604 183.344 185.864 183.604 186.192 183.788C186.52 183.972 186.892 184.064 187.308 184.064C187.652 184.064 187.972 183.992 188.268 183.848C188.572 183.696 188.828 183.464 189.036 183.152L189.912 183.704C189.664 184.144 189.312 184.484 188.856 184.724C188.408 184.956 187.896 185.072 187.32 185.072Z" fill="#92929D"/>
<defs>
<clipPath id="clip0_2_801">
<rect width="76" height="76" fill="white" transform="translate(88)"/>
</clipPath>
</defs>
</svg>
